<mxfile host="app.diagrams.net" modified="2024-12-03T18:16:36.066Z" agent="Mozilla/5.0 (Windows NT 10.0; Win64; x64) AppleWebKit/537.36 (KHTML, like Gecko) Chrome/131.0.0.0 Safari/537.36 Edg/131.0.0.0" etag="zmg4OHJJuoSOZktyXj8Q" version="24.0.7" type="device">
  <diagram name="Page-1" id="9Mia7CIdmgF54ASI_Wjq">
    <mxGraphModel dx="1040" dy="1373" grid="1" gridSize="10" guides="1" tooltips="1" connect="1" arrows="1" fold="1" page="1" pageScale="1" pageWidth="1100" pageHeight="1700" math="0" shadow="0">
      <root>
        <mxCell id="0" />
        <mxCell id="1" parent="0" />
        <mxCell id="0UjprOyrs23MPs7Csr48-9" value="" style="rounded=1;whiteSpace=wrap;html=1;fillColor=#f5f5f5;strokeColor=#666666;fontColor=#333333;" vertex="1" parent="1">
          <mxGeometry x="70" y="60" width="830" height="700" as="geometry" />
        </mxCell>
        <mxCell id="0UjprOyrs23MPs7Csr48-1" value="" style="rounded=1;whiteSpace=wrap;html=1;fillColor=#d5e8d4;strokeColor=#82b366;" vertex="1" parent="1">
          <mxGeometry x="90" y="300" width="500" height="430" as="geometry" />
        </mxCell>
        <mxCell id="0UjprOyrs23MPs7Csr48-3" value="" style="sketch=0;points=[[0,0,0],[0.25,0,0],[0.5,0,0],[0.75,0,0],[1,0,0],[0,1,0],[0.25,1,0],[0.5,1,0],[0.75,1,0],[1,1,0],[0,0.25,0],[0,0.5,0],[0,0.75,0],[1,0.25,0],[1,0.5,0],[1,0.75,0]];outlineConnect=0;fontColor=#232F3E;fillColor=#ED7100;strokeColor=#ffffff;dashed=0;verticalLabelPosition=bottom;verticalAlign=top;align=center;html=1;fontSize=12;fontStyle=0;aspect=fixed;shape=mxgraph.aws4.resourceIcon;resIcon=mxgraph.aws4.ec2;" vertex="1" parent="1">
          <mxGeometry x="190" y="420" width="78" height="78" as="geometry" />
        </mxCell>
        <mxCell id="0UjprOyrs23MPs7Csr48-4" value="" style="sketch=0;points=[[0,0,0],[0.25,0,0],[0.5,0,0],[0.75,0,0],[1,0,0],[0,1,0],[0.25,1,0],[0.5,1,0],[0.75,1,0],[1,1,0],[0,0.25,0],[0,0.5,0],[0,0.75,0],[1,0.25,0],[1,0.5,0],[1,0.75,0]];outlineConnect=0;fontColor=#232F3E;fillColor=#ED7100;strokeColor=#ffffff;dashed=0;verticalLabelPosition=bottom;verticalAlign=top;align=center;html=1;fontSize=12;fontStyle=0;aspect=fixed;shape=mxgraph.aws4.resourceIcon;resIcon=mxgraph.aws4.ec2;" vertex="1" parent="1">
          <mxGeometry x="390" y="420" width="78" height="78" as="geometry" />
        </mxCell>
        <mxCell id="0UjprOyrs23MPs7Csr48-5" value="" style="outlineConnect=0;dashed=0;verticalLabelPosition=bottom;verticalAlign=top;align=center;html=1;shape=mxgraph.aws3.ecs;fillColor=#F58534;gradientColor=none;" vertex="1" parent="1">
          <mxGeometry x="304" y="590" width="72" height="67.5" as="geometry" />
        </mxCell>
        <mxCell id="0UjprOyrs23MPs7Csr48-7" value="" style="outlineConnect=0;dashed=0;verticalLabelPosition=bottom;verticalAlign=top;align=center;html=1;shape=mxgraph.aws3.application_load_balancer;fillColor=#F58534;gradientColor=none;" vertex="1" parent="1">
          <mxGeometry x="307" y="260" width="69" height="72" as="geometry" />
        </mxCell>
        <mxCell id="0UjprOyrs23MPs7Csr48-11" value="" style="endArrow=none;html=1;rounded=0;" edge="1" parent="1" source="0UjprOyrs23MPs7Csr48-5" target="0UjprOyrs23MPs7Csr48-4">
          <mxGeometry width="50" height="50" relative="1" as="geometry">
            <mxPoint x="510" y="420" as="sourcePoint" />
            <mxPoint x="850" y="420" as="targetPoint" />
          </mxGeometry>
        </mxCell>
        <mxCell id="0UjprOyrs23MPs7Csr48-12" value="" style="endArrow=none;html=1;rounded=0;entryX=0.75;entryY=1;entryDx=0;entryDy=0;entryPerimeter=0;" edge="1" parent="1" source="0UjprOyrs23MPs7Csr48-5" target="0UjprOyrs23MPs7Csr48-3">
          <mxGeometry width="50" height="50" relative="1" as="geometry">
            <mxPoint x="204" y="810" as="sourcePoint" />
            <mxPoint x="254" y="760" as="targetPoint" />
          </mxGeometry>
        </mxCell>
        <mxCell id="0UjprOyrs23MPs7Csr48-13" value="" style="endArrow=classic;startArrow=classic;html=1;rounded=0;entryX=0.5;entryY=1;entryDx=0;entryDy=0;entryPerimeter=0;exitX=0.75;exitY=0;exitDx=0;exitDy=0;exitPerimeter=0;" edge="1" parent="1" source="0UjprOyrs23MPs7Csr48-3" target="0UjprOyrs23MPs7Csr48-7">
          <mxGeometry width="50" height="50" relative="1" as="geometry">
            <mxPoint x="720" y="430" as="sourcePoint" />
            <mxPoint x="770" y="380" as="targetPoint" />
          </mxGeometry>
        </mxCell>
        <mxCell id="0UjprOyrs23MPs7Csr48-14" value="" style="endArrow=classic;startArrow=classic;html=1;rounded=0;entryX=0.5;entryY=1;entryDx=0;entryDy=0;entryPerimeter=0;exitX=0.25;exitY=0;exitDx=0;exitDy=0;exitPerimeter=0;" edge="1" parent="1" source="0UjprOyrs23MPs7Csr48-4" target="0UjprOyrs23MPs7Csr48-7">
          <mxGeometry width="50" height="50" relative="1" as="geometry">
            <mxPoint x="730" y="440" as="sourcePoint" />
            <mxPoint x="780" y="390" as="targetPoint" />
          </mxGeometry>
        </mxCell>
        <mxCell id="0UjprOyrs23MPs7Csr48-17" value="" style="group" vertex="1" connectable="0" parent="1">
          <mxGeometry x="472" y="110" width="78.39999999999992" height="64" as="geometry" />
        </mxCell>
        <mxCell id="0UjprOyrs23MPs7Csr48-8" value="" style="pointerEvents=1;shadow=0;dashed=0;html=1;strokeColor=none;fillColor=#4495D1;labelPosition=center;verticalLabelPosition=bottom;verticalAlign=top;align=center;outlineConnect=0;shape=mxgraph.veeam.laptop;" vertex="1" parent="0UjprOyrs23MPs7Csr48-17">
          <mxGeometry width="58.4" height="44" as="geometry" />
        </mxCell>
        <mxCell id="0UjprOyrs23MPs7Csr48-15" value="" style="pointerEvents=1;shadow=0;dashed=0;html=1;strokeColor=none;fillColor=#4495D1;labelPosition=center;verticalLabelPosition=bottom;verticalAlign=top;align=center;outlineConnect=0;shape=mxgraph.veeam.laptop;" vertex="1" parent="0UjprOyrs23MPs7Csr48-17">
          <mxGeometry x="9.999999999999943" y="10" width="58.4" height="44" as="geometry" />
        </mxCell>
        <mxCell id="0UjprOyrs23MPs7Csr48-16" value="" style="pointerEvents=1;shadow=0;dashed=0;html=1;strokeColor=none;fillColor=#4495D1;labelPosition=center;verticalLabelPosition=bottom;verticalAlign=top;align=center;outlineConnect=0;shape=mxgraph.veeam.laptop;" vertex="1" parent="0UjprOyrs23MPs7Csr48-17">
          <mxGeometry x="19.999999999999943" y="20" width="58.4" height="44" as="geometry" />
        </mxCell>
        <mxCell id="0UjprOyrs23MPs7Csr48-28" value="" style="rounded=1;whiteSpace=wrap;html=1;fillColor=#f8cecc;strokeColor=#b85450;" vertex="1" parent="1">
          <mxGeometry x="630" y="360" width="210" height="350" as="geometry" />
        </mxCell>
        <mxCell id="0UjprOyrs23MPs7Csr48-18" value="" style="sketch=0;points=[[0,0,0],[0.25,0,0],[0.5,0,0],[0.75,0,0],[1,0,0],[0,1,0],[0.25,1,0],[0.5,1,0],[0.75,1,0],[1,1,0],[0,0.25,0],[0,0.5,0],[0,0.75,0],[1,0.25,0],[1,0.5,0],[1,0.75,0]];outlineConnect=0;fontColor=#232F3E;fillColor=#ED7100;strokeColor=#ffffff;dashed=0;verticalLabelPosition=bottom;verticalAlign=top;align=center;html=1;fontSize=12;fontStyle=0;aspect=fixed;shape=mxgraph.aws4.resourceIcon;resIcon=mxgraph.aws4.ec2;" vertex="1" parent="1">
          <mxGeometry x="700" y="420" width="78" height="78" as="geometry" />
        </mxCell>
        <mxCell id="0UjprOyrs23MPs7Csr48-19" value="" style="endArrow=classic;startArrow=classic;html=1;rounded=0;exitX=0.855;exitY=0.145;exitDx=0;exitDy=0;exitPerimeter=0;" edge="1" parent="1" source="0UjprOyrs23MPs7Csr48-7" target="0UjprOyrs23MPs7Csr48-16">
          <mxGeometry width="50" height="50" relative="1" as="geometry">
            <mxPoint x="430" y="240" as="sourcePoint" />
            <mxPoint x="480" y="190" as="targetPoint" />
          </mxGeometry>
        </mxCell>
        <mxCell id="0UjprOyrs23MPs7Csr48-20" value="" style="endArrow=classic;startArrow=classic;html=1;rounded=0;" edge="1" parent="1" source="0UjprOyrs23MPs7Csr48-18" target="0UjprOyrs23MPs7Csr48-16">
          <mxGeometry width="50" height="50" relative="1" as="geometry">
            <mxPoint x="376" y="280" as="sourcePoint" />
            <mxPoint x="502" y="184" as="targetPoint" />
          </mxGeometry>
        </mxCell>
        <mxCell id="0UjprOyrs23MPs7Csr48-21" value="&lt;b&gt;&lt;font style=&quot;font-size: 16px;&quot;&gt;Allspring Corporate Network&lt;/font&gt;&lt;/b&gt;" style="text;html=1;align=center;verticalAlign=middle;whiteSpace=wrap;rounded=0;" vertex="1" parent="1">
          <mxGeometry x="120" y="50" width="290" height="60" as="geometry" />
        </mxCell>
        <mxCell id="0UjprOyrs23MPs7Csr48-22" value="User devices on the network&lt;div&gt;(Laptops + Virtual Desktops)&lt;/div&gt;" style="text;html=1;align=center;verticalAlign=middle;whiteSpace=wrap;rounded=0;" vertex="1" parent="1">
          <mxGeometry x="550" y="130" width="190" height="30" as="geometry" />
        </mxCell>
        <mxCell id="0UjprOyrs23MPs7Csr48-23" value="Application Load Balancer&lt;div&gt;techhub.allspringglobal.com&lt;/div&gt;" style="text;html=1;align=center;verticalAlign=middle;whiteSpace=wrap;rounded=0;" vertex="1" parent="1">
          <mxGeometry x="110" y="210" width="248" height="30" as="geometry" />
        </mxCell>
        <mxCell id="0UjprOyrs23MPs7Csr48-24" value="AUSE1THUBWPRD01&lt;div&gt;10.28.50.7&lt;/div&gt;" style="text;html=1;align=center;verticalAlign=middle;whiteSpace=wrap;rounded=0;" vertex="1" parent="1">
          <mxGeometry x="110" y="510" width="142" height="30" as="geometry" />
        </mxCell>
        <mxCell id="0UjprOyrs23MPs7Csr48-25" value="AUSE1THUBWPRD02&lt;div&gt;10.28.50.16&lt;/div&gt;" style="text;html=1;align=center;verticalAlign=middle;whiteSpace=wrap;rounded=0;" vertex="1" parent="1">
          <mxGeometry x="414" y="510" width="142" height="30" as="geometry" />
        </mxCell>
        <mxCell id="0UjprOyrs23MPs7Csr48-26" value="AUSE1THUBWDEV01&lt;div&gt;10.28.50.16&lt;/div&gt;" style="text;html=1;align=center;verticalAlign=middle;whiteSpace=wrap;rounded=0;" vertex="1" parent="1">
          <mxGeometry x="668" y="520" width="142" height="30" as="geometry" />
        </mxCell>
        <mxCell id="0UjprOyrs23MPs7Csr48-27" value="Techhub EFS Storage" style="text;html=1;align=center;verticalAlign=middle;whiteSpace=wrap;rounded=0;" vertex="1" parent="1">
          <mxGeometry x="268" y="660" width="132" height="30" as="geometry" />
        </mxCell>
        <mxCell id="0UjprOyrs23MPs7Csr48-29" value="techhubwip.allspringglobal.com" style="text;html=1;align=center;verticalAlign=middle;whiteSpace=wrap;rounded=0;" vertex="1" parent="1">
          <mxGeometry x="634" y="310" width="210" height="30" as="geometry" />
        </mxCell>
        <mxCell id="0UjprOyrs23MPs7Csr48-30" value="&lt;h1 style=&quot;margin-top: 0px;&quot;&gt;NOTE&lt;/h1&gt;&lt;p&gt;The current techhubwip will be deprecated/moved to this instance.&amp;nbsp; While the IP will change, the site will function the same.&amp;nbsp; It is NOT connected to PRODUCTION.&amp;nbsp; They do NOT share code.&lt;/p&gt;" style="text;html=1;whiteSpace=wrap;overflow=hidden;rounded=0;" vertex="1" parent="1">
          <mxGeometry x="650" y="570" width="180" height="120" as="geometry" />
        </mxCell>
      </root>
    </mxGraphModel>
  </diagram>
</mxfile>
